# xmcd
#
# Track frame offsets: 
#        150
#        16540
#        33505
#        53160
#        87248
#        108650
#        125430
#        137648
#        161958
#        165860
#
# Disc length: 2512 seconds
#
# Revision: 1
# Processed by: cddbd v1.5.2PL0 Copyright (c) Steve Scherf et al.
# Submitted via: ExactAudioCopy v0.99pb5
#
DISCID=7709ce0a
DTITLE=Karl Richter - Bach: 6 Brandenburgische Konzerte
DYEAR=1967
DGENRE=Classical
TTITLE0=Brandenburgisches Konzert Nr.1 F-Dur BWV1046 I:(Allegro)
TTITLE1=Brandenburgisches Konzert Nr.1 F-Dur BWV1046 II:Adagio
TTITLE2=Brandenburgisches Konzert Nr.1 F-Dur BWV1046 III:Allegro
TTITLE3=Brandenburgisches Konzert Nr.1 F-Dur BWV1046 IV:Menuet-Poronai
TTITLE3=se-Menuet
TTITLE4=Brandenburgisches Konzert Nr.2 F-Dur BWV1047 I:(Allegro)
TTITLE5=Brandenburgisches Konzert Nr.2 F-Dur BWV1047 II:Andante
TTITLE6=Brandenburgisches Konzert Nr.2 F-Dur BWV1047 III:Allegro Assai
TTITLE7=Brandenburgisches Konzert Nr.3 G-Dur BWV1048 I:(Allegro)
TTITLE8=Brandenburgisches Konzert Nr.3 G-Dur BWV1048 II:Adagio
TTITLE9=Brandenburgisches Konzert Nr.3 G-Dur BWV1048 III:Allegro
EXTD=
EXTT0=
EXTT1=
EXTT2=
EXTT3=
EXTT4=
EXTT5=
EXTT6=
EXTT7=
EXTT8=
EXTT9=
PLAYORDER=
